<?xml version="1.0" encoding="utf-8"?>
<!-- Generator: Adobe Illustrator 22.1.0, SVG Export Plug-In . SVG Version: 6.00 Build 0)  -->
<svg version="1.1" id="Layer_1" xmlns="http://www.w3.org/2000/svg" xmlns:xlink="http://www.w3.org/1999/xlink" x="0px" y="0px"
	 viewBox="0 0 13 2" style="enable-background:new 0 0 13 2;" xml:space="preserve">
<style type="text/css">
	.st0{fill:#1C1C1C;}
</style>
<title>C49F76CA-C5F5-4802-BFCD-08FE1F9E81D2</title>
<desc>Created with sketchtool.</desc>
<g id="Page-1">
	<g id="Home_V4" transform="translate(-1210.000000, -32.000000)">
		<g id="Menu" transform="translate(50.000000, 17.000000)">
			<g id="menu-button" transform="translate(1160.000000, 15.000000)">
				<path id="Rectangle" class="st0" d="M6-16.6h11c0.6,0,1,0.4,1,1l0,0c0,0.6-0.4,1-1,1H6c-0.6,0-1-0.4-1-1l0,0
					C5-16.2,5.4-16.6,6-16.6z"/>
				<path id="Rectangle-Copy-6" class="st0" d="M9-11.6h11c0.6,0,1,0.4,1,1l0,0c0,0.6-0.4,1-1,1H9c-0.6,0-1-0.4-1-1l0,0
					C8-11.2,8.4-11.6,9-11.6z"/>
				<path id="Rectangle-Copy-7" class="st0" d="M1,0h11c0.6,0,1,0.4,1,1l0,0c0,0.6-0.4,1-1,1H1C0.4,2,0,1.6,0,1l0,0C0,0.4,0.4,0,1,0
					z"/>
			</g>
		</g>
	</g>
</g>
</svg>
